<?xml version="1.0" encoding="UTF-8" standalone="no"?>
<!DOCTYPE svg PUBLIC "-//W3C//DTD SVG 1.1//EN"
 "http://www.w3.org/Graphics/SVG/1.1/DTD/svg11.dtd">
<!-- Generated by graphviz version 8.1.0 (0)
 -->
<!-- Title: xxx Pages: 1 -->
<svg width="1191pt" height="827pt"
 viewBox="0.00 0.00 1191.32 827.42" xmlns="http://www.w3.org/2000/svg" xmlns:xlink="http://www.w3.org/1999/xlink">
<g id="graph0" class="graph" transform="scale(1 1) rotate(0) translate(4 823.42)">
<title>xxx</title>
<polygon fill="white" stroke="none" points="-4,4 -4,-823.42 1187.32,-823.42 1187.32,4 -4,4"/>
<text text-anchor="middle" x="591.66" y="-7.2" font-family="Times,serif" font-size="14.00"> &#160;</text>
<!-- 1a -->
<g id="node1" class="node">
<title>1a</title>
<polygon fill="lightblue" stroke="black" points="20.16,-654.98 40.32,-685.22 0,-685.22 20.16,-654.98"/>
<text text-anchor="middle" x="20.16" y="-670.09" font-family="Times,serif" font-size="14.00">A</text>
</g>
<!-- 1 -->
<g id="node13" class="node">
<title>1</title>
<polygon fill="none" stroke="black" points="161.12,-551.18 99.2,-551.18 99.2,-489.26 161.12,-489.26 161.12,-551.18"/>
<text text-anchor="middle" x="130.16" y="-513.62" font-family="Times,serif" font-size="18.00">1</text>
</g>
<!-- 1a&#45;&gt;1 -->
<g id="edge1" class="edge">
<title>1a&#45;&gt;1</title>
<path fill="none" stroke="black" d="M27.04,-664.57C42.99,-642.41 83.02,-586.75 108.26,-551.67"/>
</g>
<!-- 2a -->
<g id="node2" class="node">
<title>2a</title>
<polygon fill="lightblue" stroke="black" points="379.16,-779.1 399.32,-809.34 359,-809.34 379.16,-779.1"/>
<text text-anchor="middle" x="379.16" y="-794.21" font-family="Times,serif" font-size="14.00">A</text>
</g>
<!-- 2 -->
<g id="node14" class="node">
<title>2</title>
<polygon fill="none" stroke="black" points="522.12,-706.1 460.2,-706.1 460.2,-644.18 522.12,-644.18 522.12,-706.1"/>
<text text-anchor="middle" x="491.16" y="-668.54" font-family="Times,serif" font-size="18.00">2</text>
</g>
<!-- 2a&#45;&gt;2 -->
<g id="edge3" class="edge">
<title>2a&#45;&gt;2</title>
<path fill="none" stroke="black" d="M386.86,-789.87C402.38,-772.95 438.09,-734.01 463.39,-706.42"/>
</g>
<!-- 3a -->
<g id="node3" class="node">
<title>3a</title>
<polygon fill="orange" stroke="black" points="603.16,-779.1 623.32,-809.34 583,-809.34 603.16,-779.1"/>
<text text-anchor="middle" x="603.16" y="-794.21" font-family="Times,serif" font-size="14.00">B</text>
</g>
<!-- 3 -->
<g id="node15" class="node">
<title>3</title>
<polygon fill="none" stroke="black" points="657.12,-706.1 595.2,-706.1 595.2,-644.18 657.12,-644.18 657.12,-706.1"/>
<text text-anchor="middle" x="626.16" y="-668.54" font-family="Times,serif" font-size="18.00">3</text>
</g>
<!-- 3a&#45;&gt;3 -->
<g id="edge5" class="edge">
<title>3a&#45;&gt;3</title>
<path fill="none" stroke="black" d="M606.07,-782.79C609.68,-763.67 615.89,-730.68 620.45,-706.44"/>
</g>
<!-- 4a -->
<g id="node4" class="node">
<title>4a</title>
<polygon fill="lightblue" stroke="black" points="827.16,-779.1 847.32,-809.34 807,-809.34 827.16,-779.1"/>
<text text-anchor="middle" x="827.16" y="-794.21" font-family="Times,serif" font-size="14.00">A</text>
</g>
<!-- 4 -->
<g id="node16" class="node">
<title>4</title>
<polygon fill="none" stroke="black" points="940.12,-706.1 878.2,-706.1 878.2,-644.18 940.12,-644.18 940.12,-706.1"/>
<text text-anchor="middle" x="909.16" y="-668.54" font-family="Times,serif" font-size="18.00">4</text>
</g>
<!-- 4a&#45;&gt;4 -->
<g id="edge7" class="edge">
<title>4a&#45;&gt;4</title>
<path fill="none" stroke="black" d="M833.87,-788.27C845.73,-770.61 870.83,-733.23 888.79,-706.48"/>
</g>
<!-- 5a -->
<g id="node5" class="node">
<title>5a</title>
<polygon fill="orange" stroke="black" points="1051.16,-779.1 1071.32,-809.34 1031,-809.34 1051.16,-779.1"/>
<text text-anchor="middle" x="1051.16" y="-794.21" font-family="Times,serif" font-size="14.00">B</text>
</g>
<!-- 5 -->
<g id="node17" class="node">
<title>5</title>
<polygon fill="none" stroke="black" points="1082.12,-706.1 1020.2,-706.1 1020.2,-644.18 1082.12,-644.18 1082.12,-706.1"/>
<text text-anchor="middle" x="1051.16" y="-668.54" font-family="Times,serif" font-size="18.00">5</text>
</g>
<!-- 5a&#45;&gt;5 -->
<g id="edge9" class="edge">
<title>5a&#45;&gt;5</title>
<path fill="none" stroke="black" d="M1051.16,-778.37C1051.16,-758.9 1051.16,-728.99 1051.16,-706.54"/>
</g>
<!-- 6a -->
<g id="node6" class="node">
<title>6a</title>
<polygon fill="orange" stroke="black" points="252.16,-654.98 272.32,-685.22 232,-685.22 252.16,-654.98"/>
<text text-anchor="middle" x="252.16" y="-670.09" font-family="Times,serif" font-size="14.00">B</text>
</g>
<!-- 6 -->
<g id="node18" class="node">
<title>6</title>
<polygon fill="none" stroke="black" points="368.12,-551.18 306.2,-551.18 306.2,-489.26 368.12,-489.26 368.12,-551.18"/>
<text text-anchor="middle" x="337.16" y="-513.62" font-family="Times,serif" font-size="18.00">6</text>
</g>
<!-- 6a&#45;&gt;6 -->
<g id="edge11" class="edge">
<title>6a&#45;&gt;6</title>
<path fill="none" stroke="black" d="M258,-663.63C270.68,-640.82 301.12,-586.06 320.34,-551.48"/>
</g>
<!-- 1b -->
<g id="node7" class="node">
<title>1b</title>
<polygon fill="lightblue" stroke="black" points="132.16,-654.98 152.32,-685.22 112,-685.22 132.16,-654.98"/>
<text text-anchor="middle" x="132.16" y="-670.09" font-family="Times,serif" font-size="14.00">A</text>
</g>
<!-- 1b&#45;&gt;1 -->
<g id="edge2" class="edge">
<title>1b&#45;&gt;1</title>
<path fill="none" stroke="black" d="M131.91,-654.77C131.57,-628.73 130.96,-582.17 130.56,-551.48"/>
</g>
<!-- 2b -->
<g id="node8" class="node">
<title>2b</title>
<polygon fill="lightblue" stroke="black" points="491.16,-779.1 511.32,-809.34 471,-809.34 491.16,-779.1"/>
<text text-anchor="middle" x="491.16" y="-794.21" font-family="Times,serif" font-size="14.00">A</text>
</g>
<!-- 2b&#45;&gt;2 -->
<g id="edge4" class="edge">
<title>2b&#45;&gt;2</title>
<path fill="none" stroke="black" d="M491.16,-778.37C491.16,-758.9 491.16,-728.99 491.16,-706.54"/>
</g>
<!-- 3b -->
<g id="node9" class="node">
<title>3b</title>
<polygon fill="orange" stroke="black" points="715.16,-779.1 735.32,-809.34 695,-809.34 715.16,-779.1"/>
<text text-anchor="middle" x="715.16" y="-794.21" font-family="Times,serif" font-size="14.00">B</text>
</g>
<!-- 3b&#45;&gt;3 -->
<g id="edge6" class="edge">
<title>3b&#45;&gt;3</title>
<path fill="none" stroke="black" d="M708.18,-788.68C695.43,-771.19 667.91,-733.43 648.26,-706.47"/>
</g>
<!-- 4b -->
<g id="node10" class="node">
<title>4b</title>
<polygon fill="lightblue" stroke="black" points="939.16,-779.1 959.32,-809.34 919,-809.34 939.16,-779.1"/>
<text text-anchor="middle" x="939.16" y="-794.21" font-family="Times,serif" font-size="14.00">A</text>
</g>
<!-- 4b&#45;&gt;4 -->
<g id="edge8" class="edge">
<title>4b&#45;&gt;4</title>
<path fill="none" stroke="black" d="M935.6,-783.77C930.94,-764.82 922.67,-731.12 916.61,-706.47"/>
</g>
<!-- 5b -->
<g id="node11" class="node">
<title>5b</title>
<polygon fill="orange" stroke="black" points="1163.16,-779.1 1183.32,-809.34 1143,-809.34 1163.16,-779.1"/>
<text text-anchor="middle" x="1163.16" y="-794.21" font-family="Times,serif" font-size="14.00">B</text>
</g>
<!-- 5b&#45;&gt;5 -->
<g id="edge10" class="edge">
<title>5b&#45;&gt;5</title>
<path fill="none" stroke="black" d="M1155.46,-789.87C1139.94,-772.95 1104.23,-734.01 1078.93,-706.42"/>
</g>
<!-- 6b -->
<g id="node12" class="node">
<title>6b</title>
<polygon fill="orange" stroke="black" points="364.16,-654.98 384.32,-685.22 344,-685.22 364.16,-654.98"/>
<text text-anchor="middle" x="364.16" y="-670.09" font-family="Times,serif" font-size="14.00">B</text>
</g>
<!-- 6b&#45;&gt;6 -->
<g id="edge12" class="edge">
<title>6b&#45;&gt;6</title>
<path fill="none" stroke="black" d="M361.37,-658.35C356.94,-633.24 348.21,-583.78 342.53,-551.63"/>
</g>
<!-- 9 -->
<g id="node21" class="node">
<title>9</title>
<polygon fill="none" stroke="black" points="390.12,-396.26 328.2,-396.26 328.2,-334.34 390.12,-334.34 390.12,-396.26"/>
<text text-anchor="middle" x="359.16" y="-358.7" font-family="Times,serif" font-size="18.00">9</text>
</g>
<!-- 1&#45;&gt;9 -->
<g id="edge17" class="edge">
<title>1&#45;&gt;9</title>
<path fill="none" stroke="black" d="M155.18,-489.12C171.36,-471 193.63,-448.38 216.66,-432.26 251.83,-407.64 297.67,-388.34 327.73,-377.14"/>
<text text-anchor="middle" x="222.91" y="-436.16" font-family="Times,serif" font-size="18.00" fill="red"> 1</text>
</g>
<!-- 13 -->
<g id="node25" class="node">
<title>13</title>
<polygon fill="none" stroke="black" points="208.12,-396.26 146.2,-396.26 146.2,-334.34 208.12,-334.34 208.12,-396.26"/>
<text text-anchor="middle" x="177.16" y="-358.7" font-family="Times,serif" font-size="18.00">13</text>
</g>
<!-- 1&#45;&gt;13 -->
<g id="edge25" class="edge">
<title>1&#45;&gt;13</title>
<path fill="none" stroke="black" d="M123.12,-489.06C120.47,-471.96 119.41,-450.41 125.66,-432.26 130.1,-419.35 138.23,-407.02 146.73,-396.6"/>
<text text-anchor="middle" x="131.91" y="-436.16" font-family="Times,serif" font-size="18.00" fill="red"> 1</text>
</g>
<!-- 7 -->
<g id="node19" class="node">
<title>7</title>
<polygon fill="none" stroke="black" points="657.12,-551.18 595.2,-551.18 595.2,-489.26 657.12,-489.26 657.12,-551.18"/>
<text text-anchor="middle" x="626.16" y="-513.62" font-family="Times,serif" font-size="18.00">7</text>
</g>
<!-- 2&#45;&gt;7 -->
<g id="edge13" class="edge">
<title>2&#45;&gt;7</title>
<path fill="none" stroke="black" d="M517.83,-643.93C541.42,-617.21 575.67,-578.41 599.31,-551.63"/>
<text text-anchor="middle" x="572.91" y="-591.08" font-family="Times,serif" font-size="18.00" fill="red"> 2</text>
</g>
<!-- 3&#45;&gt;7 -->
<g id="edge14" class="edge">
<title>3&#45;&gt;7</title>
<path fill="none" stroke="black" d="M626.16,-643.93C626.16,-617.21 626.16,-578.41 626.16,-551.63"/>
<text text-anchor="middle" x="632.91" y="-591.08" font-family="Times,serif" font-size="18.00" fill="red"> 2</text>
</g>
<!-- 8 -->
<g id="node20" class="node">
<title>8</title>
<polygon fill="none" stroke="black" points="940.12,-551.18 878.2,-551.18 878.2,-489.26 940.12,-489.26 940.12,-551.18"/>
<text text-anchor="middle" x="909.16" y="-513.62" font-family="Times,serif" font-size="18.00">8</text>
</g>
<!-- 4&#45;&gt;8 -->
<g id="edge15" class="edge">
<title>4&#45;&gt;8</title>
<path fill="none" stroke="black" d="M909.16,-643.93C909.16,-617.21 909.16,-578.41 909.16,-551.63"/>
<text text-anchor="middle" x="915.91" y="-591.08" font-family="Times,serif" font-size="18.00" fill="red"> 2</text>
</g>
<!-- 5&#45;&gt;8 -->
<g id="edge16" class="edge">
<title>5&#45;&gt;8</title>
<path fill="none" stroke="black" d="M1023.11,-643.93C998.29,-617.21 962.27,-578.41 937.4,-551.63"/>
<text text-anchor="middle" x="994.91" y="-591.08" font-family="Times,serif" font-size="18.00" fill="red"> 2</text>
</g>
<!-- 11 -->
<g id="node23" class="node">
<title>11</title>
<polygon fill="none" stroke="black" points="524.12,-396.26 462.2,-396.26 462.2,-334.34 524.12,-334.34 524.12,-396.26"/>
<text text-anchor="middle" x="493.16" y="-358.7" font-family="Times,serif" font-size="18.00">11</text>
</g>
<!-- 6&#45;&gt;11 -->
<g id="edge22" class="edge">
<title>6&#45;&gt;11</title>
<path fill="none" stroke="black" d="M368.56,-495.29C383.74,-483.23 401.93,-468.06 417.16,-453.26 435.57,-435.38 454.57,-413.64 468.96,-396.37"/>
<text text-anchor="middle" x="442.91" y="-436.16" font-family="Times,serif" font-size="18.00" fill="red"> 1</text>
</g>
<!-- 6&#45;&gt;13 -->
<g id="edge26" class="edge">
<title>6&#45;&gt;13</title>
<path fill="none" stroke="black" d="M305.93,-489.37C277.83,-462.51 236.74,-423.25 208.58,-396.33"/>
<text text-anchor="middle" x="272.91" y="-436.16" font-family="Times,serif" font-size="18.00" fill="red"> 1</text>
</g>
<!-- 7&#45;&gt;9 -->
<g id="edge18" class="edge">
<title>7&#45;&gt;9</title>
<path fill="none" stroke="black" d="M594.7,-518.17C546.87,-514.98 455.41,-502.37 398.66,-453.26 381.73,-438.61 371.67,-415.23 365.95,-396.4"/>
<text text-anchor="middle" x="404.91" y="-436.16" font-family="Times,serif" font-size="18.00" fill="red"> 1</text>
</g>
<!-- 10 -->
<g id="node22" class="node">
<title>10</title>
<polygon fill="none" stroke="black" points="840.12,-396.26 778.2,-396.26 778.2,-334.34 840.12,-334.34 840.12,-396.26"/>
<text text-anchor="middle" x="809.16" y="-358.7" font-family="Times,serif" font-size="18.00">10</text>
</g>
<!-- 7&#45;&gt;10 -->
<g id="edge19" class="edge">
<title>7&#45;&gt;10</title>
<path fill="none" stroke="black" d="M654.5,-488.95C671.32,-471.61 693.45,-449.87 714.66,-432.26 734.82,-415.52 759.1,-398.64 777.99,-386.14"/>
<text text-anchor="middle" x="720.91" y="-436.16" font-family="Times,serif" font-size="18.00" fill="red"> 1</text>
</g>
<!-- s7 -->
<g id="node26" class="node">
<title>s7</title>
<polygon fill="violet" stroke="black" points="658.12,-365.3 642.64,-396.26 611.68,-396.26 596.2,-365.3 611.68,-334.34 642.64,-334.34 658.12,-365.3"/>
<text text-anchor="middle" x="627.16" y="-358.7" font-family="Times,serif" font-size="18.00">s7</text>
</g>
<!-- 7&#45;&gt;s7 -->
<g id="edge27" class="edge">
<title>7&#45;&gt;s7</title>
<path fill="none" stroke="black" d="M624.47,-489.04C623.74,-472.31 623.16,-451.13 623.66,-432.26 623.97,-420.57 624.59,-407.72 625.22,-396.5"/>
<text text-anchor="middle" x="629.91" y="-436.16" font-family="Times,serif" font-size="18.00" fill="purple"> 1</text>
</g>
<!-- 8&#45;&gt;10 -->
<g id="edge20" class="edge">
<title>8&#45;&gt;10</title>
<path fill="none" stroke="black" d="M889.4,-489.01C871.93,-462.29 846.56,-423.49 829.05,-396.71"/>
<text text-anchor="middle" x="870.91" y="-436.16" font-family="Times,serif" font-size="18.00" fill="red"> 1</text>
</g>
<!-- 8&#45;&gt;11 -->
<g id="edge21" class="edge">
<title>8&#45;&gt;11</title>
<path fill="none" stroke="black" d="M877.78,-500.66C843.37,-481.04 786,-450.48 733.16,-432.26 658.91,-406.66 634.88,-420.43 560.16,-396.26 548.16,-392.38 535.42,-387.02 524.31,-381.9"/>
<text text-anchor="middle" x="788.91" y="-436.16" font-family="Times,serif" font-size="18.00" fill="red"> 1</text>
</g>
<!-- s8 -->
<g id="node27" class="node">
<title>s8</title>
<polygon fill="violet" stroke="black" points="1022.12,-365.3 1006.64,-396.26 975.68,-396.26 960.2,-365.3 975.68,-334.34 1006.64,-334.34 1022.12,-365.3"/>
<text text-anchor="middle" x="991.16" y="-358.7" font-family="Times,serif" font-size="18.00">s8</text>
</g>
<!-- 8&#45;&gt;s8 -->
<g id="edge28" class="edge">
<title>8&#45;&gt;s8</title>
<path fill="none" stroke="black" d="M925.36,-489.01C939.78,-462.11 960.76,-422.99 975.13,-396.19"/>
<text text-anchor="middle" x="960.91" y="-436.16" font-family="Times,serif" font-size="18.00" fill="purple"> 1</text>
</g>
<!-- 12 -->
<g id="node24" class="node">
<title>12</title>
<polygon fill="none" stroke="black" points="447.12,-241.34 385.2,-241.34 385.2,-179.42 447.12,-179.42 447.12,-241.34"/>
<text text-anchor="middle" x="416.16" y="-203.78" font-family="Times,serif" font-size="18.00">12</text>
</g>
<!-- 9&#45;&gt;12 -->
<g id="edge23" class="edge">
<title>9&#45;&gt;12</title>
<path fill="none" stroke="black" d="M358.7,-334.03C359.36,-316.89 361.75,-295.35 368.66,-277.34 373.51,-264.69 381.41,-252.25 389.38,-241.65"/>
<text text-anchor="middle" x="374.91" y="-281.24" font-family="Times,serif" font-size="18.00" fill="red"> 2</text>
</g>
<!-- s10 -->
<g id="node28" class="node">
<title>s10</title>
<polygon fill="violet" stroke="black" points="840.12,-210.38 824.64,-241.34 793.68,-241.34 778.2,-210.38 793.68,-179.42 824.64,-179.42 840.12,-210.38"/>
<text text-anchor="middle" x="809.16" y="-203.78" font-family="Times,serif" font-size="18.00">s10</text>
</g>
<!-- 10&#45;&gt;s10 -->
<g id="edge29" class="edge">
<title>10&#45;&gt;s10</title>
<path fill="none" stroke="black" d="M809.16,-334.09C809.16,-307.37 809.16,-268.57 809.16,-241.79"/>
<text text-anchor="middle" x="815.91" y="-281.24" font-family="Times,serif" font-size="18.00" fill="purple"> 1</text>
</g>
<!-- 11&#45;&gt;12 -->
<g id="edge24" class="edge">
<title>11&#45;&gt;12</title>
<path fill="none" stroke="black" d="M477.95,-334.09C464.49,-307.37 444.96,-268.57 431.47,-241.79"/>
<text text-anchor="middle" x="465.91" y="-281.24" font-family="Times,serif" font-size="18.00" fill="red"> 2</text>
</g>
<!-- s12 -->
<g id="node29" class="node">
<title>s12</title>
<polygon fill="violet" stroke="black" points="447.12,-55.46 431.64,-86.42 400.68,-86.42 385.2,-55.46 400.68,-24.5 431.64,-24.5 447.12,-55.46"/>
<text text-anchor="middle" x="416.16" y="-48.86" font-family="Times,serif" font-size="18.00">s12</text>
</g>
<!-- 12&#45;&gt;s12 -->
<g id="edge30" class="edge">
<title>12&#45;&gt;s12</title>
<path fill="none" stroke="black" d="M416.16,-179.17C416.16,-152.45 416.16,-113.65 416.16,-86.87"/>
<text text-anchor="middle" x="422.91" y="-126.32" font-family="Times,serif" font-size="18.00" fill="purple"> 2</text>
</g>
<!-- s13 -->
<g id="node30" class="node">
<title>s13</title>
<polygon fill="violet" stroke="black" points="208.12,-210.38 192.64,-241.34 161.68,-241.34 146.2,-210.38 161.68,-179.42 192.64,-179.42 208.12,-210.38"/>
<text text-anchor="middle" x="177.16" y="-203.78" font-family="Times,serif" font-size="18.00">s13</text>
</g>
<!-- 13&#45;&gt;s13 -->
<g id="edge31" class="edge">
<title>13&#45;&gt;s13</title>
<path fill="none" stroke="black" d="M177.16,-334.09C177.16,-307.37 177.16,-268.57 177.16,-241.79"/>
<text text-anchor="middle" x="183.91" y="-281.24" font-family="Times,serif" font-size="18.00" fill="purple"> 1</text>
</g>
</g>
</svg>
